<svg xmlns="http://www.w3.org/2000/svg" viewBox="0 0 1500 700"><defs><style>.cls-1{fill:#56bf9d;}.cls-2{fill:#fff;}</style></defs><g id="Layer_2" data-name="Layer 2"><g id="Layer_1-2" data-name="Layer 1"><rect width="1500" height="700"/><polygon class="cls-1" points="434.42 298.36 395.85 298.36 395.85 274.12 415.13 259.79 434.42 274.12 434.42 298.36"/><polygon class="cls-2" points="402.94 274.11 415.13 265.05 427.33 274.11 402.94 274.11"/><polygon class="cls-2" points="994.66 259.79 994.66 298.36 1065.59 298.36 1065.59 330.72 994.66 330.72 994.66 369.29 1065.59 369.29 1065.59 401.64 994.66 401.64 994.66 440.21 1104.15 440.21 1104.15 259.79 994.66 259.79"/><polygon class="cls-2" points="941.71 401.64 876.99 401.64 876.99 330.72 838.42 330.72 838.42 440.21 838.42 440.21 838.42 440.21 980.27 440.21 980.27 440.21 980.27 330.72 941.71 330.72 941.71 401.64"/><rect class="cls-2" x="395.85" y="330.72" width="38.57" height="109.49"/><polygon class="cls-2" points="824.03 330.72 643.61 330.72 643.61 440.21 682.18 440.21 682.18 369.29 714.54 369.29 714.54 440.21 753.11 440.21 753.11 369.29 785.47 369.29 785.47 440.21 824.03 440.21 824.03 330.72 824.03 330.72 824.03 330.72"/><polygon class="cls-2" points="629.23 330.72 448.8 330.72 448.8 330.72 448.8 440.21 487.37 440.21 487.37 369.29 519.73 369.29 519.73 440.21 558.3 440.21 558.3 369.29 590.66 369.29 590.66 440.21 629.23 440.21 629.23 330.72 629.23 330.72 629.23 330.72"/></g></g></svg>